<mxfile host="app.diagrams.net" agent="Mozilla/5.0 (Macintosh; Intel Mac OS X 10_15_7) AppleWebKit/537.36 (KHTML, like Gecko) Chrome/131.0.0.0 Safari/537.36" version="26.0.3">
  <diagram name="Page-1" id="Lzci3XkzCjG77vOelA0i">
    <mxGraphModel dx="2218" dy="912" grid="1" gridSize="10" guides="1" tooltips="1" connect="1" arrows="1" fold="1" page="1" pageScale="1" pageWidth="850" pageHeight="1100" math="0" shadow="0">
      <root>
        <mxCell id="0" />
        <mxCell id="1" parent="0" />
        <mxCell id="wuyQoKNk4EnmWG0LEpvZ-19" style="edgeStyle=orthogonalEdgeStyle;rounded=0;orthogonalLoop=1;jettySize=auto;html=1;" edge="1" parent="1" source="wuyQoKNk4EnmWG0LEpvZ-2" target="wuyQoKNk4EnmWG0LEpvZ-12">
          <mxGeometry relative="1" as="geometry" />
        </mxCell>
        <mxCell id="wuyQoKNk4EnmWG0LEpvZ-2" value="" style="sketch=0;pointerEvents=1;shadow=0;dashed=0;html=1;strokeColor=none;fillColor=#505050;labelPosition=center;verticalLabelPosition=bottom;verticalAlign=top;outlineConnect=0;align=center;shape=mxgraph.office.devices.video_camera;rotation=-180;" vertex="1" parent="1">
          <mxGeometry x="40" y="257.5" width="52" height="25" as="geometry" />
        </mxCell>
        <mxCell id="wuyQoKNk4EnmWG0LEpvZ-18" style="edgeStyle=orthogonalEdgeStyle;rounded=0;orthogonalLoop=1;jettySize=auto;html=1;" edge="1" parent="1" source="wuyQoKNk4EnmWG0LEpvZ-5" target="wuyQoKNk4EnmWG0LEpvZ-2">
          <mxGeometry relative="1" as="geometry" />
        </mxCell>
        <mxCell id="wuyQoKNk4EnmWG0LEpvZ-5" value="Room" style="rounded=0;whiteSpace=wrap;html=1;fillColor=#fff2cc;strokeColor=#d6b656;" vertex="1" parent="1">
          <mxGeometry x="-130" y="240" width="120" height="60" as="geometry" />
        </mxCell>
        <mxCell id="wuyQoKNk4EnmWG0LEpvZ-7" value="Mobile camera" style="text;html=1;align=center;verticalAlign=middle;whiteSpace=wrap;rounded=0;" vertex="1" parent="1">
          <mxGeometry x="36" y="290" width="60" height="30" as="geometry" />
        </mxCell>
        <mxCell id="wuyQoKNk4EnmWG0LEpvZ-8" value="Room lighted with light color" style="rounded=0;whiteSpace=wrap;html=1;fillColor=#e1d5e7;strokeColor=#9673a6;" vertex="1" parent="1">
          <mxGeometry x="800" y="240" width="120" height="60" as="geometry" />
        </mxCell>
        <mxCell id="wuyQoKNk4EnmWG0LEpvZ-24" value="" style="edgeStyle=orthogonalEdgeStyle;rounded=0;orthogonalLoop=1;jettySize=auto;html=1;" edge="1" parent="1" source="wuyQoKNk4EnmWG0LEpvZ-9" target="wuyQoKNk4EnmWG0LEpvZ-10">
          <mxGeometry relative="1" as="geometry" />
        </mxCell>
        <mxCell id="wuyQoKNk4EnmWG0LEpvZ-9" value="Select corresponding statistical color data" style="rounded=0;whiteSpace=wrap;html=1;fillColor=#dae8fc;strokeColor=#6c8ebf;" vertex="1" parent="1">
          <mxGeometry x="350" y="140" width="120" height="60" as="geometry" />
        </mxCell>
        <mxCell id="wuyQoKNk4EnmWG0LEpvZ-21" value="" style="edgeStyle=orthogonalEdgeStyle;rounded=0;orthogonalLoop=1;jettySize=auto;html=1;" edge="1" parent="1" source="wuyQoKNk4EnmWG0LEpvZ-10" target="wuyQoKNk4EnmWG0LEpvZ-13">
          <mxGeometry relative="1" as="geometry" />
        </mxCell>
        <mxCell id="wuyQoKNk4EnmWG0LEpvZ-10" value="Perform statistical color transfer" style="rounded=0;whiteSpace=wrap;html=1;fillColor=#d5e8d4;strokeColor=#82b366;" vertex="1" parent="1">
          <mxGeometry x="350" y="240" width="120" height="60" as="geometry" />
        </mxCell>
        <mxCell id="wuyQoKNk4EnmWG0LEpvZ-20" style="edgeStyle=orthogonalEdgeStyle;rounded=0;orthogonalLoop=1;jettySize=auto;html=1;" edge="1" parent="1" source="wuyQoKNk4EnmWG0LEpvZ-12" target="wuyQoKNk4EnmWG0LEpvZ-10">
          <mxGeometry relative="1" as="geometry" />
        </mxCell>
        <mxCell id="wuyQoKNk4EnmWG0LEpvZ-12" value="Input video feed" style="rounded=0;whiteSpace=wrap;html=1;fillColor=#dae8fc;strokeColor=#6c8ebf;" vertex="1" parent="1">
          <mxGeometry x="160" y="240" width="120" height="60" as="geometry" />
        </mxCell>
        <mxCell id="wuyQoKNk4EnmWG0LEpvZ-27" value="" style="edgeStyle=orthogonalEdgeStyle;rounded=0;orthogonalLoop=1;jettySize=auto;html=1;" edge="1" parent="1" source="wuyQoKNk4EnmWG0LEpvZ-13" target="wuyQoKNk4EnmWG0LEpvZ-25">
          <mxGeometry relative="1" as="geometry" />
        </mxCell>
        <mxCell id="wuyQoKNk4EnmWG0LEpvZ-13" value="Output feed" style="rounded=0;whiteSpace=wrap;html=1;fillColor=#ffe6cc;strokeColor=#d79b00;" vertex="1" parent="1">
          <mxGeometry x="520" y="240" width="120" height="60" as="geometry" />
        </mxCell>
        <mxCell id="wuyQoKNk4EnmWG0LEpvZ-23" style="edgeStyle=orthogonalEdgeStyle;rounded=0;orthogonalLoop=1;jettySize=auto;html=1;exitX=0.5;exitY=1;exitDx=0;exitDy=0;entryX=0.5;entryY=0;entryDx=0;entryDy=0;" edge="1" parent="1" source="wuyQoKNk4EnmWG0LEpvZ-16" target="wuyQoKNk4EnmWG0LEpvZ-9">
          <mxGeometry relative="1" as="geometry" />
        </mxCell>
        <mxCell id="wuyQoKNk4EnmWG0LEpvZ-16" value="User selects light color" style="rounded=0;whiteSpace=wrap;html=1;fillColor=#f5f5f5;fontColor=#333333;strokeColor=#666666;" vertex="1" parent="1">
          <mxGeometry x="350" y="60" width="120" height="60" as="geometry" />
        </mxCell>
        <mxCell id="wuyQoKNk4EnmWG0LEpvZ-28" value="" style="edgeStyle=orthogonalEdgeStyle;rounded=0;orthogonalLoop=1;jettySize=auto;html=1;" edge="1" parent="1" source="wuyQoKNk4EnmWG0LEpvZ-25" target="wuyQoKNk4EnmWG0LEpvZ-8">
          <mxGeometry relative="1" as="geometry" />
        </mxCell>
        <mxCell id="wuyQoKNk4EnmWG0LEpvZ-25" value="" style="shape=image;html=1;verticalAlign=top;verticalLabelPosition=bottom;labelBackgroundColor=#ffffff;imageAspect=0;aspect=fixed;image=https://cdn4.iconfinder.com/data/icons/essential-app-1/16/mobile-phone-smart-screen-128.png" vertex="1" parent="1">
          <mxGeometry x="690" y="230" width="80" height="80" as="geometry" />
        </mxCell>
        <mxCell id="wuyQoKNk4EnmWG0LEpvZ-26" value="Mobile screen" style="text;html=1;align=center;verticalAlign=middle;whiteSpace=wrap;rounded=0;" vertex="1" parent="1">
          <mxGeometry x="700" y="320" width="60" height="30" as="geometry" />
        </mxCell>
      </root>
    </mxGraphModel>
  </diagram>
</mxfile>
